<?xml version="1.0" standalone="no"?>
<!DOCTYPE svg PUBLIC "-//W3C//DTD SVG 20010904//EN"
 "http://www.w3.org/TR/2001/REC-SVG-20010904/DTD/svg10.dtd">
<svg version="1.0" xmlns="http://www.w3.org/2000/svg"
 width="1568.000000pt" height="1568.000000pt" viewBox="0 0 1568.000000 1568.000000"
 preserveAspectRatio="xMidYMid meet">
<metadata>
Created by potrace 1.11, written by Peter Selinger 2001-2013
</metadata>
<g transform="translate(0.000000,1568.000000) scale(0.100000,-0.100000)"
fill="#000000" stroke="none">
<path d="M9601 12784 c-78 -28 -171 -105 -171 -143 0 -6 -4 -11 -9 -11 -30 0
-48 -201 -23 -254 6 -14 17 -37 24 -51 30 -64 125 -138 199 -154 28 -6 287
-10 680 -10 349 0 676 0 726 -1 l93 0 65 -130 c36 -71 65 -133 64 -136 0 -4 3
-10 8 -13 4 -3 57 -105 117 -226 60 -121 113 -221 118 -223 4 -2 8 -10 8 -17
0 -13 253 -519 269 -539 5 -6 9 -13 9 -16 1 -9 60 -130 70 -143 6 -6 10 -14 9
-17 -1 -7 153 -313 164 -324 5 -6 9 -17 9 -26 0 -9 6 -22 13 -28 6 -7 12 -16
13 -20 0 -9 77 -165 84 -172 6 -6 39 -78 41 -88 0 -4 4 -11 9 -17 17 -20 168
-325 162 -325 -4 0 -2 -4 3 -8 13 -8 75 -133 74 -146 0 -5 3 -12 8 -15 5 -3
79 -145 163 -316 85 -170 158 -312 161 -315 4 -3 8 -12 10 -20 2 -8 51 -107
109 -220 58 -113 107 -212 109 -220 2 -8 6 -17 10 -20 9 -8 151 -296 151 -308
0 -6 4 -12 8 -14 7 -3 62 -111 62 -123 0 -3 -3 -6 -7 -6 -5 -1 -18 -5 -30 -10
-16 -6 -23 -5 -23 4 0 7 -3 8 -8 2 -4 -5 -27 -11 -52 -11 -43 -2 -106 -8 -180
-18 -19 -3 -51 -7 -70 -10 -19 -2 -46 -7 -60 -10 -25 -6 -61 -13 -115 -22 -67
-12 -226 -57 -335 -94 -63 -22 -119 -42 -125 -44 -24 -8 -56 -21 -147 -61 -53
-24 -99 -40 -102 -37 -3 3 -6 1 -6 -4 0 -6 -19 -19 -42 -29 -54 -23 -227 -122
-250 -143 -10 -8 -18 -11 -18 -6 0 5 -4 5 -8 -1 -11 -16 -99 -75 -111 -75 -6
0 -11 -3 -11 -7 0 -5 -17 -19 -38 -33 -20 -14 -44 -32 -52 -41 -8 -9 -20 -18
-27 -20 -40 -13 -423 -376 -423 -400 0 -6 -4 -7 -10 -4 -5 3 -10 1 -10 -5 0
-6 -11 -23 -25 -38 -64 -69 -265 -340 -265 -358 0 -3 -16 -28 -35 -57 -19 -28
-35 -57 -35 -64 0 -6 -4 -13 -8 -15 -20 -7 -210 -418 -194 -418 4 0 1 -4 -5
-8 -7 -4 -14 -17 -16 -27 -2 -11 -7 -29 -11 -40 -5 -11 -12 -31 -16 -45 -4
-14 -12 -34 -16 -45 -4 -11 -8 -22 -9 -25 0 -3 -7 -30 -14 -60 -8 -30 -17 -62
-21 -70 -5 -8 -11 -32 -14 -54 -4 -21 -8 -41 -10 -45 -3 -3 -7 -26 -11 -51 -4
-25 -8 -47 -10 -50 -2 -4 -7 -29 -10 -56 -4 -27 -8 -56 -10 -64 -5 -22 -18
-121 -18 -147 -1 -16 -7 -23 -21 -24 -164 -4 -3810 2 -3815 6 -3 4 -6 25 -7
48 0 23 -4 51 -7 62 -3 11 -8 43 -12 70 -3 28 -8 59 -10 70 -3 11 -7 31 -9 45
-5 27 -9 43 -28 130 -6 30 -13 57 -13 60 -1 3 -6 20 -10 38 -4 18 -12 35 -16
38 -5 3 -7 9 -4 14 6 10 -64 215 -117 340 -60 142 -144 308 -161 321 -5 3 -7
8 -6 10 3 4 -82 151 -92 159 -3 3 -12 16 -19 29 -7 14 -17 30 -22 35 -5 6 -26
36 -48 66 -51 70 -74 100 -97 125 -11 11 -24 27 -29 36 -23 40 -211 237 -315
331 -76 68 -135 117 -142 117 -5 0 -17 11 -28 25 -11 15 -25 26 -30 26 -6 0
-24 13 -42 30 -18 16 -37 30 -44 30 -6 0 -13 3 -15 8 -5 11 -125 92 -137 92
-6 0 -11 5 -11 10 0 6 -4 10 -8 10 -5 0 -49 24 -97 53 -49 28 -92 51 -95 51
-3 -1 -17 7 -32 17 -14 10 -28 19 -31 19 -2 0 -40 17 -83 37 -43 20 -81 38
-84 38 -3 1 -16 6 -30 12 -126 52 -363 129 -459 149 -12 3 -51 11 -85 19 -34
8 -79 17 -100 21 -21 3 -48 8 -60 10 -52 10 -115 17 -158 18 -27 1 -48 3 -48
6 0 8 -36 9 -280 11 -118 1 -235 -1 -260 -5 -25 -3 -74 -8 -110 -12 -74 -6
-113 -11 -120 -14 -3 -1 -8 -2 -12 -1 -7 1 -136 -23 -183 -34 -145 -32 -351
-93 -432 -127 -15 -6 -31 -12 -35 -13 -5 -2 -10 -4 -13 -5 -3 -1 -8 -3 -12 -5
-5 -1 -21 -7 -38 -14 -48 -20 -80 -32 -85 -32 -3 0 -13 -8 -22 -16 -10 -9 -18
-13 -18 -9 0 9 -210 -101 -323 -170 -122 -74 -269 -179 -381 -273 -139 -116
-361 -343 -426 -435 -8 -12 -25 -31 -37 -44 -13 -13 -23 -27 -23 -33 0 -6 -4
-8 -8 -5 -7 4 -2 74 6 101 4 10 5 16 7 45 1 17 4 32 5 35 1 3 4 14 5 25 1 11
3 21 5 23 1 1 3 11 4 22 2 11 7 40 11 65 5 25 10 54 11 65 2 11 10 49 19 85 8
36 17 76 20 90 11 65 100 409 120 468 3 7 5 16 6 20 1 4 10 31 20 61 10 29 16
57 13 62 -3 5 -1 9 4 9 5 0 13 15 17 33 8 33 11 45 14 50 4 6 62 174 66 190 2
9 7 23 12 30 4 6 8 17 10 22 8 33 58 161 66 166 5 3 8 10 8 15 -1 5 6 27 16
49 9 22 17 46 19 53 1 7 9 24 18 37 9 13 16 29 16 35 0 5 32 76 70 156 39 81
70 150 70 154 0 4 10 18 22 31 l23 24 2402 0 c1321 -1 2406 -4 2410 -9 4 -4 8
-11 9 -14 0 -4 4 -14 7 -22 4 -8 21 -55 37 -105 17 -49 34 -97 37 -105 3 -8 7
-18 8 -22 2 -5 4 -10 5 -13 1 -3 3 -8 5 -12 5 -18 17 -49 26 -65 5 -10 9 -25
9 -33 0 -8 4 -15 8 -15 4 0 8 -8 9 -19 1 -10 11 -40 23 -67 24 -53 33 -73 75
-179 16 -38 33 -76 39 -84 6 -7 11 -18 12 -25 1 -6 20 -49 43 -95 22 -46 41
-89 41 -96 0 -7 3 -15 8 -17 4 -1 34 -55 66 -118 32 -63 67 -127 77 -141 10
-14 16 -28 13 -31 -2 -3 2 -11 11 -18 8 -7 15 -16 15 -21 0 -4 12 -25 26 -46
14 -21 32 -52 41 -70 8 -18 19 -33 24 -33 5 0 9 -5 9 -10 0 -20 222 -337 280
-401 8 -9 33 -38 55 -65 65 -79 244 -255 330 -324 44 -36 82 -68 83 -72 2 -5
8 -8 14 -8 5 0 16 -6 23 -13 30 -27 64 -48 113 -73 17 -9 32 -20 32 -25 0 -5
3 -8 8 -7 4 1 48 -19 99 -44 79 -39 127 -60 155 -67 4 -1 24 -9 45 -17 20 -9
44 -17 52 -19 9 -2 41 -10 71 -19 192 -51 437 -55 661 -11 79 16 240 65 296
91 17 7 38 14 47 14 9 0 16 5 16 10 0 6 6 10 13 10 40 0 424 232 494 299 12
12 25 21 28 21 4 0 12 6 19 13 7 6 32 28 56 47 24 19 58 50 77 68 18 17 35 32
38 32 15 0 341 340 420 438 28 34 53 62 58 62 4 0 7 6 7 14 0 8 4 16 10 18 5
2 45 50 89 108 44 58 86 112 94 120 7 8 46 62 87 120 40 58 83 115 94 127 11
13 15 23 10 23 -5 0 -4 4 2 8 10 6 118 164 171 248 6 10 35 57 64 104 29 47
55 87 58 90 10 9 42 64 48 83 3 9 9 17 14 17 5 0 9 4 9 9 0 4 34 65 75 134 41
69 75 130 75 136 0 6 5 11 10 11 6 0 10 4 10 10 0 5 14 33 31 62 18 29 32 58
32 65 0 7 7 15 14 17 8 3 11 10 8 16 -3 5 -2 10 3 10 6 0 15 12 21 28 5 15 26
56 46 91 47 84 66 157 58 224 -3 29 -6 58 -6 65 0 6 -5 12 -10 12 -6 0 -8 3
-4 6 19 19 -103 159 -148 170 -14 3 -25 11 -25 17 0 6 -3 8 -6 5 -3 -4 -20 -2
-37 4 -99 30 -228 -5 -303 -82 -20 -21 -93 -138 -161 -261 -69 -123 -165 -291
-214 -372 -49 -82 -89 -153 -89 -158 0 -5 -3 -9 -8 -9 -4 0 -22 -27 -40 -60
-19 -33 -38 -60 -43 -60 -5 0 -9 -5 -9 -11 0 -9 -185 -295 -200 -309 -3 -3
-28 -36 -55 -75 -27 -38 -76 -106 -109 -150 -83 -109 -89 -115 -108 -137 -10
-10 -18 -20 -18 -23 0 -6 -28 -40 -62 -75 -16 -16 -28 -30 -28 -33 0 -16 -380
-404 -444 -452 -21 -17 -44 -35 -50 -40 -44 -41 -221 -165 -236 -165 -4 0 -10
-4 -12 -9 -4 -10 -145 -82 -221 -112 -187 -75 -368 -93 -552 -55 -47 10 -233
82 -245 96 -3 3 -15 11 -27 18 -13 6 -33 18 -45 25 -13 6 -25 14 -28 18 -3 3
-26 20 -52 39 -27 18 -48 37 -48 42 0 4 -6 8 -13 8 -7 0 -23 10 -34 23 -12 12
-47 48 -79 79 -74 72 -108 108 -169 183 -28 33 -53 62 -57 63 -5 2 -8 9 -8 17
0 7 -7 19 -16 26 -18 15 -38 43 -134 189 -5 8 -21 32 -34 52 -75 113 -252 445
-325 611 -44 100 -69 158 -76 177 -3 10 -36 85 -45 105 -5 11 -23 58 -40 105
-17 47 -35 94 -40 105 -5 11 -37 103 -71 205 l-62 185 -2 820 c-2 451 -5 829
-8 840 -3 11 -6 22 -7 25 -1 3 -2 8 -1 13 0 4 -3 7 -8 7 -5 0 -11 11 -15 23
-8 34 -89 111 -144 139 l-47 23 -2713 2 c-2394 3 -2716 1 -2736 -12 -12 -8
-26 -12 -29 -8 -4 3 -7 1 -7 -5 0 -7 -6 -12 -13 -12 -26 0 -108 -89 -135 -147
l-27 -58 -3 -798 -3 -798 -67 -132 c-36 -73 -65 -135 -64 -139 1 -5 -2 -8 -8
-8 -5 0 -10 -4 -10 -9 0 -5 -18 -48 -41 -97 -36 -77 -59 -128 -64 -144 -1 -3
-7 -16 -13 -30 -50 -115 -109 -270 -104 -274 3 -3 1 -6 -5 -6 -6 0 -15 -17
-21 -37 -6 -21 -19 -61 -30 -90 -11 -28 -17 -54 -14 -57 3 -3 0 -6 -6 -6 -7 0
-12 -8 -12 -17 0 -10 -9 -41 -20 -70 -17 -45 -105 -322 -116 -363 -2 -8 -13
-49 -24 -90 -38 -134 -51 -185 -54 -207 -2 -11 -7 -30 -10 -41 -4 -11 -9 -29
-11 -39 -2 -10 -11 -50 -20 -90 -9 -39 -18 -84 -20 -100 -2 -15 -4 -28 -5 -28
-1 0 -3 -10 -6 -22 -2 -13 -6 -33 -8 -45 -3 -13 -5 -23 -6 -23 -1 0 -3 -11 -5
-25 -4 -31 -15 -95 -22 -124 -2 -11 -6 -34 -9 -51 -2 -16 -6 -45 -9 -62 -3
-18 -7 -49 -10 -68 -3 -19 -8 -52 -11 -72 -3 -21 -8 -56 -10 -78 -2 -22 -5
-58 -8 -80 -3 -22 -8 -67 -11 -100 -3 -33 -8 -73 -10 -90 -26 -197 -27 -962
-1 -1157 3 -18 7 -65 11 -103 3 -39 7 -81 10 -95 4 -27 14 -101 21 -165 3 -22
7 -51 10 -65 3 -14 7 -37 8 -51 19 -160 176 -291 336 -279 19 1 43 3 53 3 9 1
17 5 17 9 0 4 8 8 18 8 18 0 75 32 98 55 8 7 17 15 21 17 15 6 62 76 56 82 -4
3 -1 6 5 6 9 0 21 33 28 75 1 6 3 12 4 15 1 3 3 50 5 105 2 113 15 276 21 287
3 4 7 27 9 50 5 47 11 82 26 143 15 61 17 70 19 70 1 0 3 12 5 27 2 16 7 38
11 50 5 13 8 25 9 28 14 79 145 388 207 488 11 17 17 32 13 32 -3 0 -1 6 5 13
6 6 42 62 82 122 39 61 79 118 90 128 10 10 18 21 18 25 0 4 16 25 36 47 119
136 146 165 209 226 39 37 84 78 100 90 17 13 36 31 43 41 7 10 20 18 28 18 8
0 14 4 14 9 0 4 19 21 43 37 23 16 48 34 54 41 7 6 29 21 50 34 21 13 40 26
43 30 3 3 21 14 40 24 19 10 37 21 40 24 13 18 266 142 385 189 118 47 363
114 459 126 19 2 40 7 45 10 5 4 39 8 74 10 36 2 69 6 73 8 20 12 314 15 454
5 93 -7 129 -11 200 -24 19 -3 42 -7 50 -8 96 -13 343 -80 425 -114 11 -5 53
-23 94 -40 40 -17 79 -31 86 -31 8 0 15 -3 17 -7 2 -5 21 -16 43 -26 36 -16
198 -107 249 -140 54 -34 221 -159 277 -207 70 -61 203 -193 262 -259 50 -57
200 -258 221 -296 9 -16 25 -43 35 -60 50 -81 97 -171 131 -250 12 -27 28 -63
36 -80 25 -58 63 -165 57 -165 -3 0 -1 -6 5 -13 6 -7 13 -24 16 -37 2 -14 12
-48 20 -76 9 -28 17 -63 18 -78 1 -14 5 -26 8 -26 3 0 6 -8 7 -17 1 -17 6 -39
18 -93 3 -14 8 -50 11 -80 3 -30 8 -71 10 -90 3 -19 5 -54 6 -77 0 -24 5 -43
10 -43 5 0 4 -8 -1 -19 -6 -10 -8 -21 -5 -24 3 -2 6 -54 8 -113 3 -96 6 -116
31 -164 28 -56 107 -140 131 -140 8 0 14 -5 14 -10 0 -6 3 -9 8 -9 4 1 9 0 12
-1 3 -1 14 -4 25 -8 11 -4 1046 -8 2300 -10 2287 -3 2385 -2 2385 30 0 4 6 8
13 8 18 0 107 79 107 96 0 8 3 14 8 14 14 0 42 82 47 138 3 31 7 111 9 177 3
66 5 120 6 120 1 0 3 11 5 25 7 71 17 145 20 150 2 3 6 24 9 45 6 52 66 289
75 295 3 3 7 13 9 24 2 10 8 30 14 45 6 14 12 31 13 36 0 6 6 22 13 37 6 15
25 60 42 99 17 40 49 107 72 148 22 42 46 86 52 98 6 13 14 23 19 23 4 0 7 7
7 15 0 8 5 15 10 15 6 0 9 3 8 8 -2 10 35 72 45 72 4 0 7 7 7 15 0 8 5 15 10
15 6 0 10 5 10 10 0 6 5 16 10 23 6 7 31 39 56 72 25 33 51 63 57 67 7 4 9 8
6 8 -4 0 14 22 40 49 25 27 58 62 72 77 37 43 177 172 218 202 20 15 41 32 46
38 19 21 182 134 193 134 5 0 12 4 14 8 5 12 108 73 108 64 0 -4 4 -2 8 5 7
12 147 85 207 109 17 6 66 26 110 44 105 42 260 90 360 113 17 4 44 9 60 12
17 3 40 7 51 9 55 11 103 18 144 21 25 2 45 4 45 5 0 1 27 3 60 5 32 3 65 7
72 9 7 3 13 0 13 -7 0 -8 3 -8 8 -2 4 7 46 10 107 8 92 -2 123 -3 150 -1 15 1
147 -12 175 -17 14 -3 45 -7 70 -10 45 -5 56 -7 140 -25 25 -6 56 -13 70 -16
14 -2 39 -9 56 -15 17 -5 40 -11 50 -14 22 -4 111 -34 199 -65 57 -21 95 -37
210 -91 106 -49 355 -201 396 -241 8 -8 30 -25 49 -38 19 -13 37 -27 40 -30 3
-3 21 -18 40 -34 19 -15 64 -56 100 -91 61 -58 150 -123 150 -109 0 4 7 0 17
-7 11 -10 43 -14 102 -14 74 1 94 5 138 28 63 33 115 83 145 140 29 56 30 61
33 141 2 65 -10 120 -37 168 -17 30 -137 150 -218 218 -36 30 -67 57 -70 60
-3 3 -32 25 -65 50 -33 25 -62 47 -65 50 -3 3 -12 10 -21 15 -9 6 -44 29 -77
53 -34 23 -64 42 -67 42 -3 0 -11 5 -18 11 -35 30 -340 194 -372 200 -5 1 -19
8 -30 15 -11 8 -27 14 -37 14 -10 0 -18 5 -18 11 0 5 -4 8 -9 4 -5 -3 -12 -1
-15 4 -3 5 -17 12 -30 15 -14 3 -38 11 -53 18 -15 6 -30 12 -33 12 -3 1 -25 8
-50 17 -111 39 -187 61 -384 107 -27 7 -42 33 -178 302 -81 162 -152 300 -158
307 -5 7 -10 17 -10 22 0 12 -54 116 -70 136 -7 8 -10 15 -7 15 6 0 -98 207
-113 224 -4 6 -9 14 -9 18 -1 11 -95 202 -102 208 -5 4 -20 36 -24 50 0 3 -25
52 -55 110 -30 58 -59 116 -64 130 -5 14 -19 41 -31 60 -22 36 -32 58 -33 74
0 5 -4 12 -9 15 -9 6 -30 50 -31 65 0 5 -4 12 -9 15 -11 8 -113 214 -113 228
0 6 -3 13 -8 15 -4 2 -97 181 -206 398 -109 217 -219 436 -244 485 -25 50 -46
92 -47 95 -1 3 -19 39 -40 80 -21 41 -39 77 -40 80 -1 3 -28 59 -62 125 -34
66 -151 299 -261 517 -110 219 -204 404 -210 410 -6 7 -10 17 -10 21 1 12 -56
121 -64 125 -5 2 -8 9 -8 16 0 14 -65 143 -83 165 -7 8 -10 15 -7 15 2 1 -22
53 -55 116 -55 109 -102 180 -117 180 -4 0 -19 11 -34 25 -15 14 -34 25 -43
25 -10 0 -23 6 -29 13 -10 9 -205 12 -895 14 -774 2 -887 0 -926 -13z m-3475
-2233 c20 -1 20 -2 20 -481 0 -329 -3 -480 -10 -482 -6 0 -1045 -2 -2308 -3
l-2298 -1 0 483 0 483 1828 2 c1488 3 2641 2 2768 -1z"/>
<path d="M3326 6683 c-2 -2 -46 -5 -97 -8 -242 -10 -480 -72 -719 -188 -58
-27 -106 -54 -108 -59 -2 -4 -12 -8 -23 -8 -10 0 -19 -4 -19 -10 0 -5 -5 -10
-10 -10 -6 0 -16 -4 -23 -10 -7 -5 -50 -37 -96 -71 -101 -74 -98 -71 -166
-136 -30 -29 -55 -49 -55 -46 0 3 -10 -7 -22 -23 -12 -16 -31 -38 -43 -49 -53
-51 -185 -232 -236 -321 -26 -46 -83 -157 -85 -164 0 -3 -6 -17 -12 -32 -7
-16 -17 -40 -24 -55 -6 -16 -12 -31 -13 -35 -2 -5 -4 -10 -5 -13 -1 -3 -3 -8
-4 -12 -1 -5 -10 -33 -20 -63 -34 -106 -50 -171 -62 -255 -3 -22 -8 -51 -10
-65 -2 -14 -7 -59 -10 -100 -3 -41 -7 -80 -9 -87 -2 -7 0 -15 6 -18 5 -4 6
-11 3 -17 -10 -16 -11 -69 -1 -75 4 -2 3 -12 -3 -22 -5 -10 -7 -21 -4 -24 3
-3 8 -34 11 -69 6 -73 10 -113 13 -113 1 0 3 -15 5 -34 7 -66 66 -282 95 -346
5 -11 14 -37 21 -57 7 -21 17 -38 21 -38 4 0 8 -6 8 -13 0 -18 48 -118 68
-139 8 -10 12 -18 9 -18 -4 0 13 -30 38 -66 25 -36 45 -69 45 -74 0 -4 3 -10
8 -12 4 -1 26 -28 49 -58 69 -92 188 -220 204 -220 6 0 7 -4 4 -10 -3 -5 -3
-10 2 -10 4 0 22 -12 38 -26 66 -57 94 -80 115 -94 12 -8 28 -19 34 -25 7 -5
21 -15 31 -22 196 -121 295 -172 415 -212 36 -12 72 -25 80 -28 18 -7 17 -7
115 -32 44 -11 96 -22 115 -25 19 -3 46 -8 60 -11 82 -17 364 -25 455 -12 33
4 78 10 100 12 96 11 311 67 400 104 117 49 237 106 246 117 6 8 16 14 21 14
9 0 177 107 188 120 3 3 23 19 45 36 92 68 287 267 301 307 3 9 10 15 15 12 5
-4 9 -1 9 5 0 6 4 16 10 23 46 56 60 76 60 84 0 5 8 18 18 29 31 34 152 270
161 316 1 4 10 28 21 54 11 25 23 60 26 77 3 17 10 35 17 39 7 4 9 8 5 8 -3 0
-2 16 4 36 10 37 15 59 23 107 3 15 8 42 11 60 15 81 17 113 18 287 1 186 -3
245 -24 353 -6 31 -8 62 -5 67 3 6 2 10 -3 10 -5 0 -12 15 -16 33 -8 44 -59
211 -66 217 -3 3 -11 23 -19 45 -16 47 -78 175 -109 225 -12 19 -25 42 -29 50
-13 28 -115 167 -150 205 -13 13 -23 27 -23 31 0 3 -44 50 -98 103 -188 185
-364 302 -632 419 -77 33 -294 93 -390 108 -19 2 -46 7 -60 10 -14 2 -63 7
-110 9 -47 3 -100 7 -118 8 -18 2 -34 2 -36 0z m214 -657 c14 -3 41 -9 60 -12
45 -8 155 -42 200 -61 83 -36 165 -77 168 -85 2 -4 8 -6 13 -2 5 3 9 1 9 -5 0
-5 9 -13 20 -16 11 -3 26 -12 32 -18 7 -7 38 -31 68 -54 55 -41 127 -109 165
-154 76 -91 155 -207 155 -229 0 -6 5 -10 10 -10 6 0 10 -9 10 -20 0 -11 5
-20 10 -20 6 0 10 -7 10 -15 0 -8 4 -23 10 -33 14 -26 42 -95 45 -112 2 -8 10
-42 19 -75 45 -171 46 -419 1 -595 -2 -8 -4 -15 -6 -15 -1 0 -3 -9 -5 -20 -4
-26 -31 -105 -44 -127 -6 -10 -10 -25 -10 -33 0 -8 -5 -15 -12 -15 -6 0 -9 -3
-5 -6 7 -8 -45 -102 -107 -193 -61 -90 -202 -233 -283 -287 -32 -21 -60 -42
-63 -45 -6 -8 -204 -109 -213 -109 -3 0 -18 -5 -34 -12 -28 -11 -39 -15 -70
-22 -10 -3 -18 -5 -18 -6 0 -2 -36 -10 -57 -12 -10 -1 -18 -5 -18 -8 0 -3 -10
-5 -22 -6 -13 0 -50 -4 -83 -9 -220 -30 -486 11 -667 102 -27 13 -49 23 -50
22 -9 -4 -176 103 -224 143 -292 246 -458 595 -454 958 1 93 5 149 14 195 3
17 8 44 11 60 4 23 29 112 40 145 15 43 35 88 66 148 20 39 34 72 31 72 -4 0
1 5 11 11 9 5 17 15 17 22 0 7 16 32 35 57 20 25 43 55 53 68 9 12 37 42 61
65 24 23 55 54 68 68 39 43 171 133 268 184 50 26 90 46 90 45 0 -1 8 1 18 4
34 11 42 13 48 12 3 0 12 4 20 10 12 10 50 21 139 40 14 3 45 8 70 10 25 3 47
7 49 9 6 6 303 -2 331 -9z"/>
<path d="M13408 6685 c-2 -3 -62 -7 -132 -10 -70 -2 -130 -6 -134 -9 -4 -2
-32 -7 -62 -11 -109 -13 -314 -74 -434 -129 -42 -19 -76 -33 -76 -30 0 3 -12
-4 -26 -15 -15 -12 -31 -21 -36 -21 -4 0 -38 -18 -74 -40 -36 -22 -68 -40 -70
-40 -2 0 -12 -6 -21 -14 -10 -8 -55 -43 -100 -76 -106 -80 -274 -245 -338
-334 -11 -16 -24 -33 -30 -40 -23 -26 -107 -160 -149 -237 -43 -80 -124 -272
-132 -313 -2 -10 -9 -35 -16 -55 -6 -20 -13 -45 -14 -56 0 -11 -6 -38 -12 -60
-12 -45 -24 -115 -26 -160 -1 -17 -4 -35 -8 -40 -5 -9 -4 -390 1 -390 1 0 4
-13 6 -30 2 -16 7 -48 10 -70 4 -22 8 -49 10 -60 1 -11 4 -22 5 -25 1 -3 3 -9
4 -15 1 -5 5 -21 9 -35 4 -14 9 -36 11 -50 2 -14 14 -52 26 -85 12 -33 25 -71
30 -85 15 -48 82 -195 96 -211 8 -8 14 -19 14 -23 0 -12 73 -130 82 -134 4 -2
8 -8 8 -13 0 -9 58 -90 110 -154 29 -36 214 -220 256 -255 16 -14 52 -41 79
-60 28 -19 52 -38 53 -42 2 -4 8 -8 12 -8 5 0 28 -13 52 -29 43 -29 184 -103
269 -140 48 -21 164 -60 239 -81 25 -7 52 -15 60 -17 8 -3 24 -7 35 -9 11 -1
38 -5 60 -9 143 -22 197 -27 340 -27 130 -1 218 5 265 16 14 3 41 7 60 9 20 2
41 7 48 11 7 4 12 5 12 2 0 -2 24 2 53 10 28 8 61 17 71 19 28 7 119 37 131
44 6 3 15 6 20 6 11 1 44 15 113 47 26 12 49 22 52 23 5 0 129 70 165 92 11 7
28 16 38 19 9 3 17 9 17 13 0 4 15 15 33 26 17 10 36 24 40 32 4 7 13 13 18
13 6 0 16 6 24 12 7 7 37 33 66 58 98 83 187 179 277 295 34 45 62 86 62 92 0
6 4 13 9 15 32 12 208 384 225 478 3 14 11 48 20 75 15 50 23 91 32 155 3 19
7 46 10 60 20 96 19 372 -2 520 -4 25 -7 55 -8 68 0 12 -5 22 -10 22 -5 0 -7
3 -4 6 3 3 -1 31 -9 62 -8 31 -16 64 -18 72 -2 8 -8 27 -14 43 -6 15 -8 27 -5
27 4 0 1 7 -6 15 -7 8 -9 15 -5 15 4 0 3 6 -2 13 -6 6 -16 30 -23 52 -7 22
-16 45 -20 50 -5 6 -9 13 -9 18 -1 12 -88 184 -108 215 -10 15 -25 39 -32 54
-8 15 -22 37 -33 47 -10 11 -18 24 -18 30 0 5 -3 11 -7 13 -5 2 -28 30 -53 63
-47 63 -204 225 -280 287 -25 21 -50 42 -56 47 -7 6 -15 7 -18 4 -3 -4 -6 -2
-6 4 0 11 -159 120 -169 116 -3 -1 -13 4 -21 12 -31 27 -291 145 -320 145 -5
0 -21 5 -37 11 -15 6 -28 10 -28 9 0 0 -25 7 -55 16 -30 9 -64 18 -75 20 -11
2 -45 8 -75 14 -86 15 -118 19 -214 26 -50 3 -93 7 -97 9 -3 3 -8 2 -11 0z
m81 -649 c52 -4 98 -9 103 -12 4 -3 23 -6 41 -8 67 -7 320 -94 337 -117 3 -3
25 -17 50 -30 47 -26 94 -55 120 -76 8 -7 32 -25 52 -41 21 -16 35 -32 31 -36
-3 -3 -1 -6 5 -6 11 0 96 -84 131 -130 9 -12 26 -35 39 -51 87 -107 185 -332
208 -474 3 -16 7 -37 10 -45 21 -57 20 -313 -1 -410 -3 -14 -8 -38 -11 -55 -9
-44 -12 -60 -14 -60 -1 0 -3 -8 -5 -17 -2 -9 -9 -34 -16 -55 -7 -21 -12 -41
-11 -45 1 -5 -2 -8 -8 -8 -5 0 -10 -7 -10 -16 0 -21 -69 -150 -124 -231 -55
-81 -140 -177 -199 -225 -27 -21 -46 -38 -42 -38 4 0 -27 -22 -68 -50 -41 -27
-80 -50 -86 -50 -6 0 -11 -4 -11 -8 0 -8 -45 -34 -61 -36 -3 -1 -21 -9 -40
-18 -43 -21 -72 -32 -81 -30 -5 1 -8 -2 -8 -8 0 -6 -3 -9 -7 -9 -5 1 -10 0
-13 -1 -3 -1 -12 -3 -20 -5 -8 -2 -44 -11 -80 -21 -36 -9 -74 -18 -85 -20 -11
-1 -20 -3 -20 -4 0 -1 -25 -4 -55 -7 -122 -12 -304 -6 -380 13 -14 3 -34 7
-45 9 -11 2 -22 4 -25 6 -3 1 -9 3 -15 4 -12 2 -22 6 -90 30 -27 9 -56 17 -62
18 -7 0 -13 5 -13 10 0 6 -3 8 -6 4 -10 -10 -199 95 -257 143 -122 102 -184
163 -240 238 -23 31 -44 59 -47 62 -18 18 -132 240 -123 240 3 0 1 6 -4 13
-12 14 -50 138 -57 182 -2 17 -5 30 -6 30 -1 0 -4 16 -7 35 -7 52 -10 340 -4
340 3 0 6 12 7 28 1 44 12 92 35 167 13 39 24 75 25 82 1 7 19 47 39 90 108
225 302 435 500 543 33 18 63 38 67 44 4 6 8 8 8 3 0 -4 17 1 38 12 52 26 181
72 217 76 17 2 50 9 75 15 25 6 80 13 124 15 43 2 81 6 84 9 2 3 8 4 11 2 3
-2 48 -7 100 -10z"/>
</g>
</svg>
